<svg width="5000" height="5000" viewBox="0 0 5000 5000" fill="none" xmlns="http://www.w3.org/2000/svg">
<g filter="url(#filter0_d_24_656)">
<g filter="url(#filter1_d_24_656)">
<path fill-rule="evenodd" clip-rule="evenodd" d="M1956.88 2472.55L1880.6 2396.27C1734.16 2249.83 1496.72 2249.83 1350.27 2396.27C1203.83 2542.72 1203.83 2780.16 1350.27 2926.6C1496.72 3073.05 1734.16 3073.05 1880.6 2926.6L2004.89 2802.31L2358.44 3155.87L2234.16 3280.16C1892.45 3621.86 1338.43 3621.86 996.718 3280.16C655.01 2938.45 655.01 2384.43 996.718 2042.72C1338.43 1701.01 1892.45 1701.01 2234.16 2042.72L2499.32 2307.88L2852.87 2661.44L2499.87 3014.45L1957.42 2472L1956.88 2472.55Z" fill="#F20519"/>
<path fill-rule="evenodd" clip-rule="evenodd" d="M2994.98 2520.56L2641.43 2167.01L2765.72 2042.72C3107.43 1701.01 3661.45 1701.01 4003.16 2042.72C4344.86 2384.43 4344.86 2938.45 4003.16 3280.16C3661.45 3621.86 3107.43 3621.86 2765.72 3280.16L2500.55 3014.99L2147 2661.44L2500.01 2308.43L3045.11 2853.53L3045.65 2852.98L3119.27 2926.6C3265.72 3073.05 3503.16 3073.05 3649.6 2926.6C3796.05 2780.16 3796.05 2542.72 3649.6 2396.27C3503.16 2249.83 3265.72 2249.83 3119.27 2396.27L2994.98 2520.56Z" fill="#F20519"/>
<circle cx="1626" cy="2661" r="250" fill="#730217"/>
<circle cx="3390" cy="2661" r="250" fill="#730217"/>
<path fill-rule="evenodd" clip-rule="evenodd" d="M2500.25 1048.72L2673.47 868.452L2500.25 702L2327.03 868.452L2500.25 1048.72ZM2907.58 1114.62C3020.05 1240.19 3161.76 1408.51 3301.42 1602.23C3170.68 1657.1 3048.2 1737.76 2941.74 1844.21L2893.94 1892.01C2768.11 1717.73 2639.12 1564.31 2535.14 1448.23C2523.14 1434.83 2511.49 1421.95 2500.25 1409.62C2489 1421.95 2477.35 1434.83 2465.35 1448.23C2361.37 1564.31 2232.37 1717.74 2106.54 1892.02L2058.73 1844.21C1952.28 1737.76 1829.81 1657.1 1699.07 1602.24C1838.74 1408.52 1980.44 1240.19 2092.92 1114.62C2160.66 1039 2218.38 978.24 2259.49 936.062C2280.06 914.96 2296.52 898.47 2308.04 887.055C2313.8 881.347 2318.33 876.904 2321.53 873.785C2323.13 872.226 2324.39 870.997 2325.31 870.105C2325.77 869.66 2326.15 869.299 2326.43 869.023L2326.8 868.673L2326.93 868.546C2326.98 868.497 2327.03 868.452 2500.25 1048.72C2673.47 868.452 2673.51 868.497 2673.57 868.546L2673.7 868.673L2674.06 869.023L2674.43 869.383C2674.65 869.592 2674.9 869.833 2675.18 870.105C2676.1 870.997 2677.37 872.226 2678.97 873.785C2682.16 876.904 2686.69 881.347 2692.46 887.055C2703.97 898.47 2720.43 914.96 2741 936.062C2782.12 978.24 2839.84 1039 2907.58 1114.62ZM3609.49 3757.47C3431.67 3737.27 3257.75 3674.72 3104.05 3569.85C2766.16 3875.01 2234.32 3875.01 1896.43 3569.84C1742.74 3674.72 1568.82 3737.26 1391 3757.47C1941.63 4479.13 3058.86 4479.13 3609.49 3757.47Z" fill="#005246"/>
</g>
</g>
<defs>
<filter id="filter0_d_24_656" x="0" y="0" width="5100" height="5050" filterUnits="userSpaceOnUse" color-interpolation-filters="sRGB">
<feFlood flood-opacity="0" result="BackgroundImageFix"/>
<feColorMatrix in="SourceAlpha" type="matrix" values="0 0 0 0 0 0 0 0 0 0 0 0 0 0 0 0 0 0 127 0" result="hardAlpha"/>
<feOffset dx="100" dy="50"/>
<feComposite in2="hardAlpha" operator="out"/>
<feColorMatrix type="matrix" values="0 0 0 0 0 0 0 0 0 0 0 0 0 0 0 0 0 0 0.25 0"/>
<feBlend mode="normal" in2="BackgroundImageFix" result="effect1_dropShadow_24_656"/>
<feBlend mode="normal" in="SourceGraphic" in2="effect1_dropShadow_24_656" result="shape"/>
</filter>
<filter id="filter1_d_24_656" x="378" y="696" width="4353.87" height="3616.71" filterUnits="userSpaceOnUse" color-interpolation-filters="sRGB">
<feFlood flood-opacity="0" result="BackgroundImageFix"/>
<feColorMatrix in="SourceAlpha" type="matrix" values="0 0 0 0 0 0 0 0 0 0 0 0 0 0 0 0 0 0 127 0" result="hardAlpha"/>
<feOffset dx="100" dy="4"/>
<feGaussianBlur stdDeviation="5"/>
<feComposite in2="hardAlpha" operator="out"/>
<feColorMatrix type="matrix" values="0 0 0 0 0 0 0 0 0 0 0 0 0 0 0 0 0 0 0.25 0"/>
<feBlend mode="normal" in2="BackgroundImageFix" result="effect1_dropShadow_24_656"/>
<feBlend mode="normal" in="SourceGraphic" in2="effect1_dropShadow_24_656" result="shape"/>
</filter>
</defs>
</svg>
